<?xml version="1.0" encoding="utf-8"?><!-- Uploaded to: SVG Repo, www.svgrepo.com, Generator: SVG Repo Mixer Tools -->
<svg fill="none" height="800px" viewBox="0 0 24 24" width="800px"
    xmlns="http://www.w3.org/2000/svg">
    <path d="M17 8C17 10.7614 14.7614 13 12 13C9.23858 13 7 10.7614 7 8C7 5.23858 9.23858 3 12 3C14.7614 3 17 5.23858 17 8Z"
        fill="#323232"
        opacity="0.1" />
    <path
        d="M17 8C17 10.7614 14.7614 13 12 13C9.23858 13 7 10.7614 7 8C7 5.23858 9.23858 3 12 3C14.7614 3 17 5.23858 17 8Z"
        stroke="#323232" stroke-width="2" />
    <path d="M3 21C3.95728 17.9237 6.41998 17 12 17C17.58 17 20.0427 17.9237 21 21" stroke="#323232"
        stroke-linecap="round" stroke-width="2" />
</svg>